<svg xmlns="http://www.w3.org/2000/svg" width="22" height="22" viewBox="0 0 22 22"><defs><style>.a,.b,.e{fill:none;}.a,.b{stroke:#fff;}.a{stroke-linejoin:round;}.c{fill:rgba(255,255,255,0);}.d{stroke:none;}</style></defs><g transform="translate(-18 -265)"><g transform="translate(0 49.988)"><path class="a" d="M122.7,148.315a.923.923,0,0,0-.649-.678l-.224-.051a2.257,2.257,0,0,1-1.539-2.686l.066-.213a.931.931,0,0,0-.26-.9,10.235,10.235,0,0,0-1.667-.956.92.92,0,0,0-.909.224l-.158.169a2.246,2.246,0,0,1-3.093,0l-.15-.165a.92.92,0,0,0-.909-.224,9.013,9.013,0,0,0-1.675.96.923.923,0,0,0-.264.9l.066.213a2.254,2.254,0,0,1-1.543,2.679l-.22.051a.923.923,0,0,0-.645.678,9.662,9.662,0,0,0,0,1.916.927.927,0,0,0,.645.7l.213.048a2.257,2.257,0,0,1,1.55,2.693l-.066.213a.923.923,0,0,0,.264.9,8.071,8.071,0,0,0,1.671.945.923.923,0,0,0,.909-.22l.15-.147a2.25,2.25,0,0,1,3.1,0l.15.161a.923.923,0,0,0,.909.22,6.594,6.594,0,0,0,.861-.44,6.289,6.289,0,0,0,.81-.524.927.927,0,0,0,.264-.9l-.066-.22a2.257,2.257,0,0,1,1.55-2.693l.213-.048a.92.92,0,0,0,.649-.685,7.193,7.193,0,0,0,0-1.916Z" transform="translate(-87.395 76.222)"/><g class="b" transform="translate(26 223)"><circle class="d" cx="2.5" cy="2.5" r="2.5"/><circle class="e" cx="2.5" cy="2.5" r="2"/></g></g><rect class="c" width="22" height="22" transform="translate(18 265)"/></g></svg>