<svg xmlns="http://www.w3.org/2000/svg" width="20" height="20" viewBox="0 0 20 20"><defs><style>.a{fill:#336ff6;}.b{fill:rgba(255,21,21,0);}</style></defs><g transform="translate(-1340 -126)"><path class="a" d="M110.456,107.93h-1.475a2.315,2.315,0,0,0-2.315,2.318v10.1a2.316,2.316,0,0,0,2.315,2.318h11.37a2.315,2.315,0,0,0,2.315-2.318v-10.1a2.316,2.316,0,0,0-2.315-2.318h-1.475V107.3a.632.632,0,1,0-1.263,0v.632h-5.895V107.3a.632.632,0,0,0-1.263,0Zm0,1.263v.632a.632.632,0,0,0,1.263,0v-.632h5.895v.632a.632.632,0,1,0,1.263,0v-.632h1.475a1.053,1.053,0,0,1,1.052,1.055v10.1a1.052,1.052,0,0,1-1.052,1.055h-11.37a1.053,1.053,0,0,1-1.052-1.055v-10.1a1.052,1.052,0,0,1,1.052-1.055Zm.211,4.421a.632.632,0,0,0,0,1.263h8a.632.632,0,0,0,0-1.263Zm2.526,3.158a.632.632,0,1,0,0,1.263h5.474a.632.632,0,0,0,0-1.263Z" transform="translate(1235.334 22.333)"/><rect class="b" width="20" height="20" transform="translate(1340 126)"/></g></svg>